<svg width="859" height="966" viewBox="0 0 859 966" fill="none" xmlns="http://www.w3.org/2000/svg">
<path d="M0 139H741V871C741 884.807 729.807 896 716 896H25C11.1929 896 0 884.807 0 871V139Z" fill="#46962A"/>
<path d="M0 12C0 5.37259 5.37258 0 12 0H105C111.627 0 117 5.37258 117 12V139H0V12Z" fill="#46962A"/>
<path d="M624 12C624 5.37259 629.373 0 636 0H729C735.627 0 741 5.37258 741 12V139H624V12Z" fill="#46962A"/>
<path d="M406 12C406 5.37259 411.373 0 418 0H511C517.627 0 523 5.37258 523 12V139H406V12Z" fill="#46962A"/>
<path d="M203 12C203 5.37259 208.373 0 215 0H308C314.627 0 320 5.37258 320 12V139H203V12Z" fill="#46962A"/>
<path d="M764.695 758.578C743.863 758.578 725.182 767.645 710.975 781.978L617.827 725.523C618.007 722.889 618.1 720.213 618.1 717.501C618.1 714.784 618.006 712.11 617.824 709.473L710.968 653.029C725.177 667.383 743.862 676.452 764.694 676.452C812.405 676.452 847.499 630.367 847.499 578.49C847.499 526.586 812.407 480.5 764.694 480.5C716.987 480.5 681.912 526.591 681.912 578.49C681.912 581.234 682.007 583.886 682.187 586.504L589.04 642.962C574.828 628.609 556.151 619.539 535.305 619.539C487.594 619.539 452.5 665.623 452.5 717.501C452.5 769.403 487.592 815.491 535.305 815.491C556.157 815.491 574.83 806.396 589.035 792.063L682.191 848.528C682.009 851.182 681.912 853.85 681.912 856.539C681.912 908.412 716.992 954.5 764.695 954.5C812.405 954.5 847.5 908.416 847.5 856.539C847.499 804.664 812.406 758.578 764.695 758.578Z" fill="#46962A" stroke="white" stroke-width="23"/>
<path d="M264.326 310.24L264.326 310.241L151.431 471.255L150.24 472.953L148.254 473.554C140.159 476 132.205 479.137 123.982 482.384L123.87 482.428C116.042 485.519 107.965 488.708 99.6693 491.266C96.4141 493.459 93.2066 495.159 90.1959 495.874C86.7634 496.689 82.2734 496.401 79.3345 492.469C76.9911 489.333 76.8221 485.227 77.1001 481.867C77.3935 478.322 78.3337 474.088 79.7841 469.284L87.9057 403.214L88.0884 401.728L88.9482 400.502L204.346 235.917C204.346 235.916 204.346 235.916 204.346 235.916C206.322 233.098 209.413 231.078 213.097 231.002C216.795 230.926 219.976 232.831 222.046 235.615L264.326 310.24ZM264.326 310.24C266.256 307.487 267.031 304.187 266.999 301.178C266.967 298.172 266.124 294.88 264.11 292.173L264.326 310.24ZM242.722 263.415C249.851 273 256.979 282.586 264.11 292.172L242.722 263.415ZM242.722 263.415C235.831 254.149 228.939 244.883 222.047 235.616L242.722 263.415ZM83 496.458H77V502.458V517V523H83H238.912H244.912V517V502.458V496.458H238.912H83ZM129.041 394.665C129.041 394.666 129.031 394.657 129.012 394.635C129.032 394.653 129.041 394.664 129.041 394.665ZM213.566 270.205C213.567 270.204 213.576 270.213 213.594 270.234C213.575 270.217 213.566 270.206 213.566 270.205ZM111.253 450.073C108.026 446.144 105.618 441.33 104.436 436.248C106.036 439.795 108.05 443.018 110.393 445.807C114.559 450.766 119.933 454.537 126.055 456.056C126.732 456.224 127.413 456.363 128.098 456.473C126.731 457.223 125.448 457.525 124.334 457.585C120.539 457.789 115.646 455.42 111.253 450.073Z" fill="#46962A" stroke="white" stroke-width="12"/>
</svg>
