<svg width="859" height="966" viewBox="0 0 859 966" fill="none" xmlns="http://www.w3.org/2000/svg">
<g clip-path="url(#clip0_11_12)">
<path d="M0 139H741V871C741 884.807 729.807 896 716 896H25C11.1929 896 0 884.807 0 871V139Z" fill="#6D6D6D"/>
<path d="M0 12C0 5.37259 5.37258 0 12 0H105C111.627 0 117 5.37258 117 12V139H0V12Z" fill="#6D6D6D"/>
<path d="M624 12C624 5.37259 629.373 0 636 0H729C735.627 0 741 5.37258 741 12V139H624V12Z" fill="#6D6D6D"/>
<path d="M406 12C406 5.37259 411.373 0 418 0H511C517.627 0 523 5.37258 523 12V139H406V12Z" fill="#6D6D6D"/>
<g filter="url(#filter0_f_11_12)">
<path d="M794.201 658.549C805.136 647.614 805.136 629.886 794.201 618.951L761.049 585.799C750.114 574.864 732.386 574.864 721.451 585.799L633.799 673.451C622.864 684.386 605.136 684.386 594.201 673.451L506.549 585.799C495.614 574.864 477.886 574.864 466.951 585.799L433.799 618.951C422.864 629.886 422.864 647.614 433.799 658.549L521.451 746.201C532.386 757.136 532.386 774.864 521.451 785.799L433.799 873.451C422.864 884.386 422.864 902.114 433.799 913.049L466.951 946.201C477.886 957.136 495.614 957.136 506.549 946.201L594.201 858.549C605.136 847.614 622.864 847.614 633.799 858.549L721.451 946.201C732.386 957.136 750.114 957.136 761.049 946.201L794.201 913.049C805.136 902.114 805.136 884.386 794.201 873.451L706.549 785.799C695.614 774.864 695.614 757.136 706.549 746.201L794.201 658.549Z" fill="#6D6D6D"/>
<path d="M794.201 658.549C805.136 647.614 805.136 629.886 794.201 618.951L761.049 585.799C750.114 574.864 732.386 574.864 721.451 585.799L633.799 673.451C622.864 684.386 605.136 684.386 594.201 673.451L506.549 585.799C495.614 574.864 477.886 574.864 466.951 585.799L433.799 618.951C422.864 629.886 422.864 647.614 433.799 658.549L521.451 746.201C532.386 757.136 532.386 774.864 521.451 785.799L433.799 873.451C422.864 884.386 422.864 902.114 433.799 913.049L466.951 946.201C477.886 957.136 495.614 957.136 506.549 946.201L594.201 858.549C605.136 847.614 622.864 847.614 633.799 858.549L721.451 946.201C732.386 957.136 750.114 957.136 761.049 946.201L794.201 913.049C805.136 902.114 805.136 884.386 794.201 873.451L706.549 785.799C695.614 774.864 695.614 757.136 706.549 746.201L794.201 658.549Z" stroke="white" stroke-width="23"/>
</g>
<g filter="url(#filter1_f_11_12)">
<path d="M250.166 233.405C254.125 223.093 248.974 211.524 238.662 207.566L227.459 203.266C217.147 199.307 205.578 204.458 201.62 214.77L134.486 389.659C130.528 399.971 135.679 411.539 145.991 415.498L157.194 419.798C167.506 423.757 179.074 418.606 183.033 408.294L250.166 233.405ZM123.772 473.379C113.46 469.421 101.892 474.571 97.9331 484.883L97.4554 486.128C93.497 496.44 98.6476 508.008 108.96 511.967L120.163 516.267C130.475 520.226 142.043 515.075 146.002 504.763L146.479 503.519C150.438 493.207 145.287 481.638 134.975 477.68L123.772 473.379Z" fill="#6D6D6D"/>
<path d="M250.166 233.405C254.125 223.093 248.974 211.524 238.662 207.566L227.459 203.266C217.147 199.307 205.578 204.458 201.62 214.77L134.486 389.659C130.528 399.971 135.679 411.539 145.991 415.498L157.194 419.798C167.506 423.757 179.074 418.606 183.033 408.294L250.166 233.405ZM123.772 473.379C113.46 469.421 101.892 474.571 97.9331 484.883L97.4554 486.128C93.497 496.44 98.6476 508.008 108.96 511.967L120.163 516.267C130.475 520.226 142.043 515.075 146.002 504.763L146.479 503.519C150.438 493.207 145.287 481.638 134.975 477.68L123.772 473.379Z" stroke="white" stroke-width="13"/>
</g>
<path d="M203 12C203 5.37259 208.373 0 215 0H308C314.627 0 320 5.37258 320 12V139H203V12Z" fill="#6D6D6D"/>
</g>
<defs>
<filter id="filter0_f_11_12" x="410.098" y="562.098" width="407.804" height="407.804" filterUnits="userSpaceOnUse" color-interpolation-filters="sRGB">
<feFlood flood-opacity="0" result="BackgroundImageFix"/>
<feBlend mode="normal" in="SourceGraphic" in2="BackgroundImageFix" result="shape"/>
<feGaussianBlur stdDeviation="2" result="effect1_foregroundBlur_11_12"/>
</filter>
<filter id="filter1_f_11_12" x="85.6199" y="191.43" width="176.382" height="336.673" filterUnits="userSpaceOnUse" color-interpolation-filters="sRGB">
<feFlood flood-opacity="0" result="BackgroundImageFix"/>
<feBlend mode="normal" in="SourceGraphic" in2="BackgroundImageFix" result="shape"/>
<feGaussianBlur stdDeviation="2" result="effect1_foregroundBlur_11_12"/>
</filter>
<clipPath id="clip0_11_12">
<rect width="859" height="966" fill="white"/>
</clipPath>
</defs>
</svg>
