<svg width="859" height="966" viewBox="0 0 859 966" fill="none" xmlns="http://www.w3.org/2000/svg">
<g clip-path="url(#clip0_15_2)">
<path d="M0 139H741V871C741 884.807 729.807 896 716 896H25C11.1929 896 0 884.807 0 871V139Z" fill="#4F7D43"/>
<path d="M0 12C0 5.37259 5.37258 0 12 0H105C111.627 0 117 5.37258 117 12V139H0V12Z" fill="#4F7D43"/>
<path d="M624 12C624 5.37259 629.373 0 636 0H729C735.627 0 741 5.37258 741 12V139H624V12Z" fill="#4F7D43"/>
<path d="M406 12C406 5.37259 411.373 0 418 0H511C517.627 0 523 5.37258 523 12V139H406V12Z" fill="#4F7D43"/>
<path d="M203 12C203 5.37259 208.373 0 215 0H308C314.627 0 320 5.37258 320 12V139H203V12Z" fill="#4F7D43"/>
<g filter="url(#filter0_f_15_2)">
<path d="M213.878 211.307C217.836 200.995 212.686 189.426 202.374 185.468L191.171 181.167C180.859 177.209 169.29 182.36 165.332 192.672L98.1983 367.561C94.2399 377.873 99.3905 389.441 109.703 393.4L120.906 397.7C131.218 401.658 142.786 396.508 146.745 386.196L213.878 211.307ZM87.484 451.281C77.1719 447.323 65.6034 452.473 61.645 462.785L61.1673 464.03C57.2089 474.342 62.3595 485.91 72.6715 489.869L83.8745 494.169C94.1866 498.128 105.755 492.977 109.713 482.665L110.191 481.42C114.15 471.108 108.999 459.54 98.6869 455.581L87.484 451.281Z" fill="#4F7D43"/>
<path d="M213.878 211.307C217.836 200.995 212.686 189.426 202.374 185.468L191.171 181.167C180.859 177.209 169.29 182.36 165.332 192.672L98.1983 367.561C94.2399 377.873 99.3905 389.441 109.703 393.4L120.906 397.7C131.218 401.658 142.786 396.508 146.745 386.196L213.878 211.307ZM87.484 451.281C77.1719 447.323 65.6034 452.473 61.645 462.785L61.1673 464.03C57.2089 474.342 62.3595 485.91 72.6715 489.869L83.8745 494.169C94.1866 498.128 105.755 492.977 109.713 482.665L110.191 481.42C114.15 471.108 108.999 459.54 98.6869 455.581L87.484 451.281Z" stroke="white" stroke-width="13"/>
</g>
<mask id="path-7-outside-1_15_2" maskUnits="userSpaceOnUse" x="505" y="541" width="354" height="424" fill="black">
<rect fill="white" x="505" y="541" width="354" height="424"/>
<path d="M681.956 941.878C650.232 941.878 622.888 934.361 599.924 919.328C576.96 904.177 559.264 882.455 546.835 854.165C534.406 825.756 528.251 791.606 528.369 751.714C528.487 711.823 534.702 677.969 547.012 650.152C559.441 622.216 577.079 600.969 599.924 586.409C622.888 571.731 650.232 564.392 681.956 564.392C713.679 564.392 741.023 571.731 763.987 586.409C787.069 600.969 804.825 622.216 817.254 650.152C829.683 678.088 835.838 711.942 835.72 751.714C835.72 791.724 829.505 825.933 817.076 854.342C804.647 882.751 786.951 904.473 763.987 919.506C741.141 934.42 713.797 941.878 681.956 941.878ZM681.956 869.967C700.895 869.967 716.224 860.32 727.943 841.026C739.662 821.613 745.462 791.842 745.343 751.714C745.343 725.436 742.68 703.774 737.353 686.729C732.027 669.565 724.628 656.781 715.159 648.376C705.689 639.972 694.621 635.77 681.956 635.77C663.135 635.77 647.924 645.299 636.324 664.357C624.723 683.296 618.864 712.415 618.745 751.714C618.627 778.348 621.172 800.424 626.38 817.943C631.707 835.462 639.164 848.542 648.752 857.183C658.341 865.706 669.408 869.967 681.956 869.967Z"/>
</mask>
<path d="M681.956 941.878C650.232 941.878 622.888 934.361 599.924 919.328C576.96 904.177 559.264 882.455 546.835 854.165C534.406 825.756 528.251 791.606 528.369 751.714C528.487 711.823 534.702 677.969 547.012 650.152C559.441 622.216 577.079 600.969 599.924 586.409C622.888 571.731 650.232 564.392 681.956 564.392C713.679 564.392 741.023 571.731 763.987 586.409C787.069 600.969 804.825 622.216 817.254 650.152C829.683 678.088 835.838 711.942 835.72 751.714C835.72 791.724 829.505 825.933 817.076 854.342C804.647 882.751 786.951 904.473 763.987 919.506C741.141 934.42 713.797 941.878 681.956 941.878ZM681.956 869.967C700.895 869.967 716.224 860.32 727.943 841.026C739.662 821.613 745.462 791.842 745.343 751.714C745.343 725.436 742.68 703.774 737.353 686.729C732.027 669.565 724.628 656.781 715.159 648.376C705.689 639.972 694.621 635.77 681.956 635.77C663.135 635.77 647.924 645.299 636.324 664.357C624.723 683.296 618.864 712.415 618.745 751.714C618.627 778.348 621.172 800.424 626.38 817.943C631.707 835.462 639.164 848.542 648.752 857.183C658.341 865.706 669.408 869.967 681.956 869.967Z" fill="#4F7D43"/>
<path d="M599.924 919.328L587.258 938.526L587.292 938.549L587.327 938.571L599.924 919.328ZM546.835 854.165L525.763 863.384L525.77 863.4L525.777 863.416L546.835 854.165ZM528.369 751.714L505.369 751.646L505.369 751.646L528.369 751.714ZM547.012 650.152L525.998 640.803L525.989 640.823L525.98 640.844L547.012 650.152ZM599.924 586.409L612.285 605.805L612.298 605.797L612.311 605.789L599.924 586.409ZM763.987 586.409L751.6 605.789L751.658 605.826L751.716 605.862L763.987 586.409ZM817.254 650.152L838.268 640.803L838.268 640.803L817.254 650.152ZM835.72 751.714L812.72 751.646L812.72 751.68V751.714H835.72ZM817.076 854.342L796.005 845.123L796.005 845.124L817.076 854.342ZM763.987 919.506L776.56 938.765L776.572 938.757L776.584 938.749L763.987 919.506ZM727.943 841.026L747.601 852.965L747.617 852.939L747.633 852.912L727.943 841.026ZM745.343 751.714H722.343V751.748L722.344 751.782L745.343 751.714ZM737.353 686.729L715.387 693.546L715.394 693.567L715.4 693.589L737.353 686.729ZM715.159 648.376L730.426 631.174L730.426 631.174L715.159 648.376ZM636.324 664.357L655.937 676.37L655.954 676.343L655.97 676.315L636.324 664.357ZM618.745 751.714L641.745 751.817L641.745 751.8L641.745 751.784L618.745 751.714ZM626.38 817.943L604.334 824.497L604.354 824.566L604.375 824.634L626.38 817.943ZM648.752 857.183L633.355 874.269L633.413 874.321L633.472 874.374L648.752 857.183ZM681.956 918.878C653.993 918.878 631.185 912.303 612.522 900.085L587.327 938.571C614.591 956.42 646.471 964.878 681.956 964.878V918.878ZM612.591 900.13C593.766 887.71 578.767 869.665 567.892 844.914L525.777 863.416C539.761 895.246 560.154 920.643 587.258 938.526L612.591 900.13ZM567.906 844.946C557.069 820.175 551.257 789.357 551.369 751.783L505.369 751.646C505.244 793.855 511.742 831.336 525.763 863.384L567.906 844.946ZM551.369 751.783C551.481 714.129 557.357 683.611 568.045 659.46L525.98 640.844C512.047 672.327 505.494 709.517 505.369 751.646L551.369 751.783ZM568.026 659.501C578.864 635.143 593.724 617.634 612.285 605.805L587.563 567.013C560.433 584.303 540.019 609.29 525.998 640.803L568.026 659.501ZM612.311 605.789C631.003 593.841 653.888 587.392 681.956 587.392V541.392C646.577 541.392 614.774 549.621 587.537 567.03L612.311 605.789ZM681.956 587.392C710.024 587.392 732.908 593.841 751.6 605.789L776.374 567.03C749.137 549.621 717.335 541.392 681.956 541.392V587.392ZM751.716 605.862C770.495 617.707 785.43 635.206 796.24 659.501L838.268 640.803C824.219 609.227 803.644 584.23 776.257 566.956L751.716 605.862ZM796.24 659.501C807.017 683.724 812.831 714.183 812.72 751.646L858.72 751.783C858.845 709.7 852.349 672.451 838.268 640.803L796.24 659.501ZM812.72 751.714C812.72 789.434 806.85 820.334 796.005 845.123L838.148 863.561C852.16 831.533 858.72 794.014 858.72 751.714H812.72ZM796.005 845.124C785.127 869.987 770.144 887.985 751.389 900.262L776.584 938.749C803.758 920.96 824.168 895.516 838.148 863.561L796.005 845.124ZM751.414 900.247C732.898 912.335 710.094 918.878 681.956 918.878V964.878C717.501 964.878 749.385 956.506 776.56 938.765L751.414 900.247ZM681.956 892.967C710.586 892.967 732.649 877.582 747.601 852.965L708.285 829.086C699.799 843.058 691.205 846.967 681.956 846.967V892.967ZM747.633 852.912C762.629 828.071 768.466 793.174 768.343 751.647L722.344 751.782C722.458 790.511 716.694 815.154 708.252 829.139L747.633 852.912ZM768.343 751.714C768.343 724.098 765.571 699.914 759.306 679.868L715.4 693.589C719.789 707.634 722.343 726.774 722.343 751.714H768.343ZM759.32 679.912C753.244 660.335 744.085 643.296 730.426 631.174L699.892 665.579C705.172 670.265 710.809 678.794 715.387 693.546L759.32 679.912ZM730.426 631.174C716.746 619.033 700.246 612.77 681.956 612.77V658.77C688.997 658.77 694.632 660.911 699.892 665.579L730.426 631.174ZM681.956 612.77C653.503 612.77 631.543 627.975 616.677 652.398L655.97 676.315C664.305 662.622 672.766 658.77 681.956 658.77V612.77ZM616.71 652.343C601.795 676.694 595.868 710.945 595.745 751.645L641.745 751.784C641.859 713.885 647.651 689.897 655.937 676.37L616.71 652.343ZM595.746 751.612C595.621 779.568 598.263 804.078 604.334 824.497L648.427 811.389C644.081 796.771 641.633 777.128 641.745 751.817L595.746 751.612ZM604.375 824.634C610.435 844.564 619.622 861.892 633.355 874.269L664.15 840.098C658.707 835.192 652.979 826.36 648.386 811.252L604.375 824.634ZM633.472 874.374C647.167 886.546 663.638 892.967 681.956 892.967V846.967C675.179 846.967 669.515 844.865 664.033 839.993L633.472 874.374Z" fill="white" mask="url(#path-7-outside-1_15_2)"/>
</g>
<defs>
<filter id="filter0_f_15_2" x="49.3318" y="169.332" width="176.382" height="336.673" filterUnits="userSpaceOnUse" color-interpolation-filters="sRGB">
<feFlood flood-opacity="0" result="BackgroundImageFix"/>
<feBlend mode="normal" in="SourceGraphic" in2="BackgroundImageFix" result="shape"/>
<feGaussianBlur stdDeviation="2" result="effect1_foregroundBlur_15_2"/>
</filter>
<clipPath id="clip0_15_2">
<rect width="859" height="966" fill="white"/>
</clipPath>
</defs>
</svg>
